<svg xmlns="http://www.w3.org/2000/svg" viewBox="0 0 512 512" role="img" aria-labelledby="title desc">
  <title id="title">BiteBalance logo</title>
  <desc id="desc">A pear with two leaves on a deep teal background.</desc>
  <defs>
    <linearGradient id="pear" x1="116" x2="348" y1="376" y2="142" gradientUnits="userSpaceOnUse">
      <stop offset="0" stop-color="#d0e41f" />
      <stop offset="0.52" stop-color="#7ccc61" />
      <stop offset="1" stop-color="#43bce5" />
    </linearGradient>
    <linearGradient id="blueEdge" x1="270" x2="430" y1="165" y2="420" gradientUnits="userSpaceOnUse">
      <stop offset="0" stop-color="#44c5ee" />
      <stop offset="1" stop-color="#1596d0" />
    </linearGradient>
    <linearGradient id="leaf" x1="144" x2="356" y1="68" y2="120" gradientUnits="userSpaceOnUse">
      <stop offset="0" stop-color="#5bd3f4" />
      <stop offset="1" stop-color="#37aee2" />
    </linearGradient>
  </defs>

  <rect width="512" height="512" fill="#0d4050" />
  <path
    d="M166 454c79 31 198 18 246-61 26-43 26-96-4-150-19-34-48-61-70-89-22-28-37-58-80-61-52-3-72 31-84 80-11 43-42 74-69 111-25 34-46 81-35 117 9 30 43 44 96 53Z"
    fill="#062d39"
    opacity=".55"
  />
  <path
    d="M305 111c-6 31 3 56 28 82 19 20 42 39 60 68 31 49 30 103 2 144-31 45-80 66-139 66-32 0-64-6-93-18 70 14 142-4 183-53 37-44 38-101 4-161-22-39-45-72-45-128Z"
    fill="url(#blueEdge)"
  />
  <path
    d="M247 111c-49 8-55 53-65 94-12 49-46 83-73 121-36 51-37 110 13 141 57 35 169 34 224-21 44-44 44-107 13-159-28-47-62-75-63-118-1-39-13-64-49-58Z"
    fill="url(#pear)"
  />
  <path
    d="M138 455c65 20 149 22 208-9 0 0-50 52-167 30-24-5-41-13-41-21Z"
    fill="#0b3442"
    opacity=".55"
  />
  <path
    d="M142 63c58-11 98-1 121 31 9 13 15 28 18 45-53 4-98-8-126-37-11-11-20-25-26-38 4 0 8 0 13-1Z"
    fill="url(#leaf)"
  />
  <path
    d="M180 84c45 13 78 30 101 55-38-8-76-24-101-55Z"
    fill="#062d39"
    opacity=".72"
  />
  <path
    d="M329 91c47-9 84-4 111 18-9 30-31 55-61 68-30 13-61 13-93 3 9-44 23-77 43-89Z"
    fill="url(#leaf)"
  />
  <path
    d="M422 113c-47 15-88 37-123 66 44-7 86-26 123-66Z"
    fill="#062d39"
    opacity=".72"
  />
</svg>
